<?xml version="1.0" encoding="utf-8"?>
<!-- Generator: Adobe Illustrator 16.2.1, SVG Export Plug-In . SVG Version: 6.00 Build 0)  -->
<!DOCTYPE svg PUBLIC "-//W3C//DTD SVG 1.1//EN" "http://www.w3.org/Graphics/SVG/1.1/DTD/svg11.dtd">
<svg version="1.1" id="Layer_1" xmlns="http://www.w3.org/2000/svg" xmlns:xlink="http://www.w3.org/1999/xlink" x="0px" y="0px"
	 width="50px" height="50px" viewBox="0 0 50 50" enable-background="new 0 0 50 50" xml:space="preserve">
<path fill="#FFFFFF" d="M38.906,14H28.125c-0.43,0-0.85-0.072-1.264-0.018C28.683,14.885,30.19,16,31.157,18h6.394
	C41.341,18,45,21.056,45,24.555v1.859C45,29.913,41.341,33,37.551,33h-7.602C26.159,33,23,29.913,23,26.414v-1.859
	c0-0.709,0.121-1.39,0.362-2.027c-1.165-1.101-2.899-1.823-4.65-1.942C18.354,21.607,18,22.7,18,23.844v2.812
	C18,32.093,22.688,37,28.125,37h10.781C44.343,37,49,32.093,49,26.656v-2.812C49,18.407,44.343,14,38.906,14z"/>
<path fill="#FFFFFF" d="M9.844,37h10.781c0.429,0,0.849-0.428,1.264-0.481C20.067,35.615,18.56,34,17.592,32H11.2
	C7.409,32,4,29.443,4,25.945v-1.858C4,20.587,7.409,18,11.2,18H18.8c3.791,0,7.2,2.587,7.2,6.086v1.858
	c0,0.709-0.246,1.389-0.487,2.027c1.165,1.101,2.461,1.823,4.212,1.942C30.084,28.893,30,27.8,30,26.656v-2.812
	C30,18.407,26.062,14,20.625,14H9.844C4.407,14,0,18.407,0,23.844v2.812C0,32.093,4.407,37,9.844,37z"/>
</svg>
