<?xml version="1.0" encoding="utf-8"?>
<!-- Generator: Adobe Illustrator 16.2.1, SVG Export Plug-In . SVG Version: 6.00 Build 0)  -->
<!DOCTYPE svg PUBLIC "-//W3C//DTD SVG 1.1//EN" "http://www.w3.org/Graphics/SVG/1.1/DTD/svg11.dtd">
<svg version="1.1" id="Layer_1" xmlns="http://www.w3.org/2000/svg" xmlns:xlink="http://www.w3.org/1999/xlink" x="0px" y="0px"
	 width="400px" height="400px" viewBox="0 0 400 400" enable-background="new 0 0 400 400" xml:space="preserve">
<g>
	<path fill="#FFFFFF" d="M287.486,169.592c0.937-21.548-5.359-38.869-13.848-52.737c-8.49-13.867-23.892-27.541-40.848-26
		c-10.132,0.921-14.501,4.734-16.807,10.171c-2.309,5.437-2.846,17.7-2.846,22.904c0,9.361,0,129.693,0,129.693
		c24.582-3.273,47.307-17.521,61.562-40.033C282.666,201.021,286.85,184.309,287.486,169.592z"/>
	<path fill="#FFFFFF" d="M200.479,9.333c-109.993,0-199.16,87.8-199.16,196.104c0,100.59,76.665,183.205,175.738,194.505
		c4.913,0.241,7.748-0.233,10.066-2.211c1.879-1.604,2.726-4.268,2.726-6.559l0.105-116.873
		c-53.628-5.577-96.526-49.784-95.866-104.07c0.629-51.85,36.344-93.4,83.609-103.178c1.251-0.259,2.1-0.5,2.764,0.165
		c0.729,0.73,0.307,2.499,0.307,2.499l-3.57,17.364c0,0-0.238,1.079-0.563,1.407c-0.325,0.326-0.743,0.492-1.226,0.642
		c-20.536,6.423-39.109,20.283-48.072,37.105c-7.474,14.031-12.33,24.501-12.33,43.595c0,41.099,32.318,78.755,74.947,83.874
		v-129.77c0-13.547,0.703-29.385,8.686-40.209c6.223-8.433,17.062-13.627,34.167-13.627c24.596,0,54.045,18.05,68.928,57.062
		c4.498,11.79,7.158,26.735,7.114,42.856c-0.131,54.12-42.323,98.417-95.71,104.219l-0.104,116.945c0,3.09,0.974,5.385,2.769,6.769
		c2.162,1.666,3.973,2.356,10.012,1.836c2.238-0.188,6.5-0.728,8.328-1.036C328.1,383,399.629,302.445,399.629,205.438
		C399.633,97.131,310.47,9.333,200.479,9.333z"/>
</g>
</svg>
